<svg width="388" height="141" viewBox="0 0 388 141" fill="none" xmlns="http://www.w3.org/2000/svg">
<g filter="url(#filter0_d_2_19)">
<path d="M8.07457 94.5V23.9545H18.7184V57.6428H19.5795L49.1687 23.9545H62.5682L34.1158 55.7138L62.6715 94.5H49.8576L27.0543 62.9819L18.7184 72.5579V94.5H8.07457ZM87.0593 95.6712C83.7066 95.6712 80.6753 95.0511 77.9656 93.8111C75.2558 92.5481 73.1087 90.7224 71.5241 88.3342C69.9626 85.9459 69.1818 83.018 69.1818 79.5504C69.1818 76.5651 69.7559 74.108 70.9041 72.179C72.0523 70.25 73.6024 68.7229 75.5543 67.5977C77.5063 66.4724 79.6879 65.6228 82.0991 65.0487C84.5103 64.4746 86.9674 64.0382 89.4705 63.7397C92.6396 63.3723 95.2115 63.0737 97.1864 62.8441C99.1613 62.5915 100.597 62.1896 101.492 61.6385C102.388 61.0874 102.836 60.1918 102.836 58.9517V58.7106C102.836 55.7023 101.986 53.3714 100.287 51.718C98.6102 50.0646 96.1071 49.2379 92.7773 49.2379C89.3098 49.2379 86.5771 50.0072 84.5792 51.5458C82.6043 53.0614 81.2379 54.7493 80.4801 56.6094L70.8008 54.4048C71.949 51.1899 73.6254 48.5949 75.8299 46.62C78.0574 44.6222 80.6179 43.1754 83.5114 42.2798C86.4048 41.3613 89.4476 40.902 92.6396 40.902C94.7522 40.902 96.9912 41.1546 99.3565 41.6598C101.745 42.142 103.972 43.0376 106.039 44.3466C108.129 45.6555 109.84 47.5271 111.172 49.9613C112.503 52.3725 113.169 55.5071 113.169 59.3651V94.5H103.111V87.2663H102.698C102.032 88.5982 101.033 89.9072 99.701 91.1932C98.3691 92.4792 96.6583 93.547 94.5685 94.3967C92.4788 95.2463 89.9757 95.6712 87.0593 95.6712ZM89.2983 87.4041C92.1458 87.4041 94.58 86.8415 96.6009 85.7163C98.6447 84.591 100.195 83.1213 101.251 81.3072C102.33 79.4701 102.87 77.5066 102.87 75.4169V68.5966C102.503 68.964 101.791 69.3085 100.734 69.63C99.701 69.9285 98.5183 70.1926 97.1864 70.4222C95.8545 70.6289 94.5571 70.8241 93.294 71.0078C92.031 71.1686 90.9747 71.3063 90.125 71.4212C88.1271 71.6738 86.3015 72.0986 84.6481 72.6957C83.0176 73.2927 81.7087 74.1539 80.7212 75.2791C79.7567 76.3814 79.2745 77.8511 79.2745 79.6882C79.2745 82.2372 80.216 84.1662 82.0991 85.4751C83.9821 86.7611 86.3819 87.4041 89.2983 87.4041ZM126.888 94.5V41.5909H136.842V49.9957H137.394C138.358 47.1482 140.057 44.9092 142.492 43.2788C144.949 41.6254 147.727 40.7986 150.828 40.7986C151.47 40.7986 152.228 40.8216 153.101 40.8675C153.997 40.9135 154.697 40.9709 155.202 41.0398V50.8913C154.789 50.7765 154.054 50.6502 152.998 50.5124C151.941 50.3517 150.885 50.2713 149.829 50.2713C147.394 50.2713 145.224 50.788 143.318 51.8214C141.435 52.8318 139.943 54.2441 138.84 56.0582C137.738 57.8494 137.187 59.8932 137.187 62.1896V94.5H126.888ZM179.039 95.6712C175.686 95.6712 172.655 95.0511 169.945 93.8111C167.235 92.5481 165.088 90.7224 163.504 88.3342C161.942 85.9459 161.161 83.018 161.161 79.5504C161.161 76.5651 161.735 74.108 162.884 72.179C164.032 70.25 165.582 68.7229 167.534 67.5977C169.486 66.4724 171.667 65.6228 174.079 65.0487C176.49 64.4746 178.947 64.0382 181.45 63.7397C184.619 63.3723 187.191 63.0737 189.166 62.8441C191.141 62.5915 192.576 62.1896 193.472 61.6385C194.367 61.0874 194.815 60.1918 194.815 58.9517V58.7106C194.815 55.7023 193.965 53.3714 192.266 51.718C190.59 50.0646 188.087 49.2379 184.757 49.2379C181.289 49.2379 178.557 50.0072 176.559 51.5458C174.584 53.0614 173.217 54.7493 172.46 56.6094L162.78 54.4048C163.928 51.1899 165.605 48.5949 167.809 46.62C170.037 44.6222 172.597 43.1754 175.491 42.2798C178.384 41.3613 181.427 40.902 184.619 40.902C186.732 40.902 188.971 41.1546 191.336 41.6598C193.724 42.142 195.952 43.0376 198.019 44.3466C200.108 45.6555 201.819 47.5271 203.151 49.9613C204.483 52.3725 205.149 55.5071 205.149 59.3651V94.5H195.091V87.2663H194.677C194.011 88.5982 193.012 89.9072 191.68 91.1932C190.349 92.4792 188.638 93.547 186.548 94.3967C184.458 95.2463 181.955 95.6712 179.039 95.6712ZM181.278 87.4041C184.125 87.4041 186.56 86.8415 188.58 85.7163C190.624 84.591 192.174 83.1213 193.231 81.3072C194.31 79.4701 194.85 77.5066 194.85 75.4169V68.5966C194.482 68.964 193.77 69.3085 192.714 69.63C191.68 69.9285 190.498 70.1926 189.166 70.4222C187.834 70.6289 186.537 70.8241 185.274 71.0078C184.011 71.1686 182.954 71.3063 182.104 71.4212C180.107 71.6738 178.281 72.0986 176.628 72.6957C174.997 73.2927 173.688 74.1539 172.701 75.2791C171.736 76.3814 171.254 77.8511 171.254 79.6882C171.254 82.2372 172.196 84.1662 174.079 85.4751C175.962 86.7611 178.361 87.4041 181.278 87.4041ZM218.867 94.5V41.5909H228.753V50.2024H229.407C230.51 47.286 232.312 45.0125 234.816 43.3821C237.319 41.7287 240.315 40.902 243.806 40.902C247.342 40.902 250.305 41.7287 252.693 43.3821C255.104 45.0355 256.884 47.3089 258.032 50.2024H258.583C259.846 47.3778 261.856 45.1274 264.611 43.451C267.367 41.7517 270.651 40.902 274.463 40.902C279.262 40.902 283.178 42.4061 286.209 45.4144C289.263 48.4227 290.79 52.9581 290.79 59.0206V94.5H280.491V59.9851C280.491 56.4027 279.515 53.8078 277.563 52.2003C275.611 50.5928 273.28 49.7891 270.57 49.7891C267.218 49.7891 264.611 50.8224 262.751 52.8892C260.891 54.933 259.961 57.5624 259.961 60.7773V94.5H249.696V59.3306C249.696 56.4601 248.801 54.1522 247.009 52.407C245.218 50.6617 242.887 49.7891 240.017 49.7891C238.065 49.7891 236.262 50.3058 234.609 51.3391C232.978 52.3495 231.658 53.7618 230.648 55.576C229.66 57.3902 229.166 59.4914 229.166 61.8796V94.5H218.867ZM344.242 54.5082L334.907 56.1616C334.517 54.9674 333.897 53.8307 333.047 52.7514C332.22 51.6721 331.095 50.788 329.671 50.0991C328.247 49.4102 326.468 49.0657 324.332 49.0657C321.416 49.0657 318.982 49.7202 317.03 51.0291C315.078 52.3151 314.102 53.98 314.102 56.0238C314.102 57.792 314.756 59.2158 316.065 60.2951C317.374 61.3744 319.487 62.2585 322.403 62.9474L330.808 64.8764C335.676 66.0017 339.305 67.7354 341.693 70.0778C344.081 72.4201 345.275 75.4628 345.275 79.206C345.275 82.375 344.357 85.1996 342.52 87.6797C340.705 90.1368 338.168 92.0658 334.907 93.4666C331.669 94.8674 327.915 95.5678 323.643 95.5678C317.718 95.5678 312.885 94.3048 309.141 91.7788C305.398 89.2298 303.102 85.6129 302.252 80.9283L312.207 79.4126C312.827 82.0076 314.102 83.971 316.031 85.3029C317.96 86.6119 320.474 87.2663 323.574 87.2663C326.95 87.2663 329.648 86.5659 331.669 85.1651C333.69 83.7414 334.7 82.0076 334.7 79.9638C334.7 78.3104 334.08 76.921 332.84 75.7958C331.623 74.6706 329.752 73.8209 327.226 73.2468L318.27 71.2834C313.332 70.1581 309.681 68.367 307.316 65.9098C304.973 63.4527 303.802 60.341 303.802 56.5749C303.802 53.4518 304.675 50.7191 306.42 48.3768C308.165 46.0344 310.577 44.2088 313.654 42.8999C316.731 41.5679 320.256 40.902 324.229 40.902C329.947 40.902 334.448 42.142 337.732 44.6222C341.015 47.0793 343.186 50.3746 344.242 54.5082Z" fill="#FE1F99"/>
</g>
<g filter="url(#filter1_d_2_19)">
<path d="M175 121.064C256.543 136.083 411.399 147.298 378.477 72" stroke="#F90D0D" stroke-opacity="0.58" stroke-width="2" shape-rendering="crispEdges"/>
</g>
<defs>
<filter id="filter0_d_2_19" x="4.07458" y="23.9545" width="345.201" height="79.7166" filterUnits="userSpaceOnUse" color-interpolation-filters="sRGB">
<feFlood flood-opacity="0" result="BackgroundImageFix"/>
<feColorMatrix in="SourceAlpha" type="matrix" values="0 0 0 0 0 0 0 0 0 0 0 0 0 0 0 0 0 0 127 0" result="hardAlpha"/>
<feOffset dy="4"/>
<feGaussianBlur stdDeviation="2"/>
<feComposite in2="hardAlpha" operator="out"/>
<feColorMatrix type="matrix" values="0 0 0 0 0 0 0 0 0 0 0 0 0 0 0 0 0 0 0.25 0"/>
<feBlend mode="normal" in2="BackgroundImageFix" result="effect1_dropShadow_2_19"/>
<feBlend mode="normal" in="SourceGraphic" in2="effect1_dropShadow_2_19" result="shape"/>
</filter>
<filter id="filter1_d_2_19" x="170.819" y="71.5994" width="217.181" height="69.4005" filterUnits="userSpaceOnUse" color-interpolation-filters="sRGB">
<feFlood flood-opacity="0" result="BackgroundImageFix"/>
<feColorMatrix in="SourceAlpha" type="matrix" values="0 0 0 0 0 0 0 0 0 0 0 0 0 0 0 0 0 0 127 0" result="hardAlpha"/>
<feOffset dy="4"/>
<feGaussianBlur stdDeviation="2"/>
<feComposite in2="hardAlpha" operator="out"/>
<feColorMatrix type="matrix" values="0 0 0 0 0 0 0 0 0 0 0 0 0 0 0 0 0 0 0.25 0"/>
<feBlend mode="normal" in2="BackgroundImageFix" result="effect1_dropShadow_2_19"/>
<feBlend mode="normal" in="SourceGraphic" in2="effect1_dropShadow_2_19" result="shape"/>
</filter>
</defs>
</svg>
